<svg width="24" height="26" viewBox="0 0 24 26" fill="none" xmlns="http://www.w3.org/2000/svg">
<path d="M20 13.298C20 13.6833 19.7178 14.0017 19.3518 14.0521L19.25 14.0591L4.25 14.0591C3.83579 14.0591 3.5 13.7183 3.5 13.298C3.5 12.9127 3.78215 12.5943 4.14823 12.5439L4.25 12.5369L19.25 12.5369C19.6642 12.5369 20 12.8777 20 13.298Z" fill="black"/>
<path d="M10.829 18.8722C11.1225 19.1687 11.1235 19.6506 10.8313 19.9485C10.5656 20.2193 10.149 20.2448 9.85489 20.0243L9.77062 19.9508L3.72062 13.8378C3.45298 13.5674 3.42863 13.1431 3.64759 12.8447L3.72057 12.7592L9.77057 6.64514C10.0641 6.34854 10.5389 6.34954 10.8312 6.64737C11.0969 6.91813 11.1203 7.341 10.9018 7.6385L10.829 7.7237L5.313 13.2988L10.829 18.8722Z" fill="black"/>
</svg>
